<svg width="100" height="100" viewBox="0 0 100 100" fill="none" xmlns="http://www.w3.org/2000/svg">
<path d="M50.0793 97C72.6015 97 91 78.5811 91 56.0338C91 53.9696 90.8414 51.9054 90.5242 50C90.8414 47.9358 91 46.0304 91 43.9662C91 21.4189 72.6015 3 50.0793 3C27.5571 3 9 21.2601 9 43.8074C9 45.8716 9.15861 47.9358 9.47582 49.8412C9.15861 51.9054 9 53.8108 9 55.875C9 78.5811 27.3985 97 50.0793 97ZM89.4139 56.0338C89.4139 77.7872 71.8085 95.4122 50.0793 95.4122C28.3501 95.4122 10.5861 77.7872 10.5861 56.0338C10.5861 34.2804 28.1915 16.6554 49.9207 16.6554C64.9884 16.6554 77.2012 28.8818 77.2012 43.9662C77.2012 44.7601 77.2012 45.5541 77.0426 46.348C72.9188 35.0743 62.1335 27.2939 49.9207 27.2939C36.2805 27.2939 24.7021 36.9797 21.8472 49.8412V50C21.3714 52.0642 21.2128 53.9696 21.2128 56.1926C21.2128 72.0709 34.06 85.0912 50.0793 85.0912C68.795 85.0912 84.4971 72.5473 89.4139 55.3986V56.0338V56.0338ZM76.5667 49.8412C73.8704 61.9088 62.9265 71.1182 50.0793 71.1182C37.5493 71.1182 26.2882 62.2264 23.5919 50C26.2882 37.7737 37.0735 28.723 50.0793 28.723C62.6093 28.723 73.7118 37.6149 76.5667 49.8412V49.8412ZM10.5861 43.8074C10.5861 22.0541 28.1915 4.42906 49.9207 4.42906C71.6499 4.42906 89.2553 22.0541 89.2553 43.8074C89.2553 65.5608 71.6499 83.1858 49.9207 83.1858C34.853 83.1858 22.6402 70.9595 22.6402 55.875C22.6402 55.0811 22.6402 54.2872 22.7988 53.4932C26.9226 64.7669 37.7079 72.5473 49.9207 72.5473C63.5609 72.5473 75.1393 62.8615 77.9942 50V49.8412C78.47 47.777 78.6286 45.8716 78.6286 43.6487C78.6286 27.7703 65.7814 14.75 49.7621 14.75C31.0464 14.75 15.3443 27.2939 10.4275 44.4426C10.7447 44.2838 10.5861 44.125 10.5861 43.8074V43.8074Z" fill="black"/>
</svg>